{
  "title": "Banshee Season 2 S02 1080p Web x265 HEVC AAC 5.1 JoyBell",
  "uid": 12797719,
  "size": 4214226410,
  "categoryP": "video",
  "categoryS": "hd___tv_shows",
  "magnet": "?xt=urn:btih:b1d2facefd6f01c9c2d938000d4fe42ac8cf7cf4&amp;dn=Banshee+Season+2+S02+1080p+Web+x265+HEVC+AAC+5.1+JoyBell&amp;tr=udp%3A%2F%2Ftracker.leechers-paradise.org%3A6969&amp;tr=udp%3A%2F%2Fzer0day.ch%3A1337&amp;tr=udp%3A%2F%2Fopen.demonii.com%3A1337&amp;tr=udp%3A%2F%2Ftracker.coppersurfer.tk%3A6969&amp;tr=udp%3A%2F%2Fexodus.desync.com%3A6969",
  "seeders": 57,
  "leechers": 9,
  "uploader": "garumon",
  "files": 11,
  "time": 1448004121,
  "description": "Banshee Season 2 S02 1080p Web x265 HEVC AAC 5.1 (Size: 3.92 GB)\r\n\r\nBanshee S02E10 1080p x265 Joy.m4v \t467.62 MB\r\nBanshee S02E02 1080p x265 Joy.m4v \t450.87 MB\r\nBanshee S02E04 1080p x265 Joy.m4v \t417.11 MB\r\nBanshee S02E03 1080p x265 Joy.m4v \t405.41 MB\r\nBanshee S02E08 1080p x265 Joy.m4v \t405.36 MB\r\nBanshee S02E01 1080p x265 Joy.m4v \t390.89 MB\r\nBanshee S02E09 1080p x265 Joy.m4v \t384.16 MB\r\nBanshee S02E07 1080p x265 Joy.m4v \t374.41 MB\r\nBanshee S02E06 1080p x265 Joy.m4v \t361.6 MB\r\nBanshee S02E05 1080p x265 Joy.m4v \t361.55 MB\r\n\r\n \nhttp://i.imgur.com/bWZD8jD.jpg \nhttp://i.imgur.com/vSlgVBK.png \nhttp://i.imgur.com/KKTQO9g.png \nhttp://i.imgur.com/0I1DLne.jpg \r\n \t\t\r\n\r\nDescription\r\nA x265/HEVC Player is a REQUIREMENT for this Torrent!\r\nIf you want the OLD format that works with all the OLD kit, get the x264 version.\r\n\r\nIf you like it, put a seed on it!\r\n\r\nBanshee Season 2, in 1080p in x265 aka HEVC and AAC 5.1 audio all for about 392mb each!\r\nEncoded using the time consuming 2 pass, from the web source, for the highest quality possible.\r\n\r\n\r\n\r\nAny questions, or help playing this file, click on the HEVC banner just above.\r\nPlease watch before rating or commenting on quality. \r\n\r\n\r\n\r\n\r\n\r\nEncoding info:\r\n\r\n\r\nFormat : MPEG-4\r\nFormat profile : Base Media / Version 2\r\nCodec ID : mp42\r\nFile size : 391 MiB\r\nDuration : 49mn 46s\r\nOverall bit rate mode : Variable\r\nOverall bit rate : 1 098 Kbps\r\nWriting application : HandBrake 0.10.1 2015030800\r\n\r\nVideo\r\nID : 1\r\nFormat : HEVC\r\nFormat/Info : High Efficiency Video Coding\r\nFormat profile :   \r\nCodec ID : hev1\r\nCodec ID/Info : High Efficiency Video Coding\r\nDuration : 49mn 46s\r\nBit rate : 901 Kbps\r\nWidth : 1 912 pixels\r\nHeight : 1 072 pixels\r\nDisplay aspect ratio : 16:9\r\nFrame rate mode : Variable\r\nFrame rate : 23.976 fps\r\nMinimum frame rate : 23.974 fps\r\nMaximum frame rate : 23.981 fps\r\nColor space : YUV\r\nChroma subsampling : 4:2:0\r\nBit depth : 8 bits\r\nBits/(Pixel*Frame) : 0.018\r\nStream size : 321 MiB (82%)\r\nWriting library : x265 1.5:[Windows][GCC 4.9.0][64 bit]\r\nEncoding settings : wpp / ctu=64 / tu-intra-depth=1 / tu-inter-depth=1 / me=1 / subme=2 / merange=57 / no-rect / no-amp / max-merge=2 / temporal-mvp / no-early-skip / no-fast-cbf / rdpenalty=0 / no-tskip / no-tskip-fast / strong-intra-smoothing / no-lossless / no-cu-lossless / no-constrained-intra / fast-intra / open-gop / interlace=0 / keyint=240 / min-keyint=24 / scenecut=40 / rc-lookahead=15 / bframes=4 / bframe-bias=0 / b-adapt=0 / ref=2 / weightp / no-weightb / aq-mode=1 / aq-strength=1.00 / cbqpoffs=0 / crqpoffs=0 / rd=2 / psy-rd=0.30 / psy-rdoq=0.00 / signhide / lft / sao / no-sao-non-deblock / b-pyramid / cutree / rc=2 / pass / bitrate=900 / qcomp=0.60 / qpmin=0 / qpmax=51 / qpstep=4 / cplxblur=20.0 / qblur=0.5 / ipratio=1.40 / pbratio=1.30\r\nColor primaries : BT.709\r\nTransfer characteristics : BT.709\r\nMatrix coefficients : BT.709\r\nColor range : Limited\r\n\r\nAudio\r\nID : 2\r\nFormat : AAC\r\nFormat/Info : Advanced Audio Codec\r\nFormat profile : HE-AAC / LC\r\nCodec ID : 40\r\nDuration : 49mn 46s\r\nBit rate mode : Variable\r\nBit rate : 192 Kbps\r\nChannel(s) : 2 channels\r\nChannel(s)_Original : 6 channels\r\nChannel positions : Front: L C R, Side: L R, LFE\r\nSampling rate : 48.0 KHz / 24.0 KHz\r\nCompression mode : Lossy\r\nStream size : 68.4 MiB (17%)\r\nTitle : Surround / Surround\r\nLanguage : English\r\n\r\nText\r\nID : 3\r\nFormat : Timed Text\r\nMuxing mode : sbtl\r\nCodec ID : tx3g\r\nDuration : 49mn 28s\r\nBit rate mode : Variable\r\nBit rate : 117 bps\r\nStream size : 42.3 KiB (0%)\r\nLanguage : English\r\n\r\n\r\nSource:\r\nWeb source",
  "parsed": {
    "xt": "urn:btih:b1d2facefd6f01c9c2d938000d4fe42ac8cf7cf4",
    "dn": "Banshee Season 2 S02 1080p Web x265 HEVC AAC 5.1 JoyBell",
    "tr": [
      "udp://exodus.desync.com:6969",
      "udp://open.demonii.com:1337",
      "udp://tracker.coppersurfer.tk:6969",
      "udp://tracker.leechers-paradise.org:6969",
      "udp://zer0day.ch:1337"
    ],
    "infoHash": "b1d2facefd6f01c9c2d938000d4fe42ac8cf7cf4",
    "infoHashBuffer": {
      "type": "Buffer",
      "data": [
        177,
        210,
        250,
        206,
        253,
        111,
        1,
        201,
        194,
        217,
        56,
        0,
        13,
        79,
        228,
        42,
        200,
        207,
        124,
        244
      ]
    },
    "name": "Banshee Season 2 S02 1080p Web x265 HEVC AAC 5.1 JoyBell",
    "announce": [
      "udp://exodus.desync.com:6969",
      "udp://open.demonii.com:1337",
      "udp://tracker.coppersurfer.tk:6969",
      "udp://tracker.leechers-paradise.org:6969",
      "udp://zer0day.ch:1337"
    ],
    "urlList": []
  },
  "previous": 41,
  "peers": 53,
  "last_updated": "2016-12-27T10:33:12.726Z"
}